<svg width="40" height="40" viewBox="0 0 40 40" fill="none" xmlns="http://www.w3.org/2000/svg">
<path d="M40 0H0V40H40V0Z" fill="black"/>
<path d="M25.0839 27.3755C25.0953 28.4051 24.9096 29.4273 24.5368 30.3871C24.1917 31.2722 23.6681 32.0769 22.9987 32.751C22.3186 33.424 21.5056 33.9479 20.6116 34.289C19.6274 34.6645 18.5811 34.851 17.5277 34.8387H11.8297V19.9123H17.5277C18.5823 19.8988 19.6297 20.0862 20.6142 20.4645C21.5069 20.8083 22.3194 21.3318 23.0013 22.0026C23.6714 22.6742 24.1951 23.4773 24.5394 24.3613C24.9116 25.3221 25.0964 26.3452 25.0839 27.3755V27.3755ZM22.2452 27.3755C22.2561 26.6278 22.1445 25.8833 21.9148 25.1716C21.7182 24.5625 21.3985 24.0004 20.9755 23.52C20.5655 23.0667 20.0582 22.712 19.4916 22.4826C18.8664 22.2335 18.1981 22.1107 17.5252 22.1213H14.6219V32.6297H17.5252C18.1981 32.6403 18.8664 32.5175 19.4916 32.2684C20.0582 32.039 20.5655 31.6843 20.9755 31.231C21.3985 30.7506 21.7182 30.1885 21.9148 29.5794C22.1445 28.8677 22.2561 28.1232 22.2452 27.3755V27.3755ZM34.56 26.4877C34.4958 26.5724 34.4212 26.6487 34.3381 26.7148C34.2449 26.7759 34.1344 26.8049 34.0232 26.7974C33.8871 26.7958 33.7544 26.7546 33.6413 26.6787C33.5174 26.5996 33.3695 26.5101 33.1974 26.4103C33.0023 26.3004 32.7965 26.2104 32.5832 26.1419C32.2972 26.0559 31.9993 26.0158 31.7006 26.0232C31.2951 26.0144 30.8928 26.0973 30.5239 26.2658C30.191 26.4251 29.9028 26.6645 29.6852 26.9626C29.449 27.2924 29.279 27.6649 29.1845 28.0594C29.0688 28.5375 29.0133 29.0281 29.0194 29.52C29.0124 30.0282 29.0732 30.535 29.2 31.0271C29.3012 31.4269 29.4782 31.8036 29.7213 32.1368C29.9375 32.4272 30.2209 32.6609 30.5471 32.8181C30.8904 32.9774 31.2654 33.0568 31.6439 33.0503C31.977 33.062 32.3095 33.0122 32.6245 32.9032C32.8481 32.8179 33.0612 32.7071 33.2594 32.5729C33.4314 32.4525 33.5819 32.3424 33.711 32.2426C33.8323 32.1449 33.9836 32.092 34.1394 32.0929C34.2309 32.0877 34.3222 32.1069 34.4038 32.1486C34.4855 32.1903 34.5545 32.2531 34.6039 32.3303L35.3368 33.2594C35.0685 33.5766 34.7586 33.8561 34.4155 34.0903C34.0952 34.3087 33.7505 34.4889 33.3884 34.6271C33.0342 34.7613 32.6664 34.8565 32.2916 34.911C31.9173 34.9658 31.5396 34.9934 31.1613 34.9936C30.5278 34.9971 29.9002 34.8724 29.3161 34.6271C28.7416 34.3843 28.2265 34.0198 27.8065 33.5587C27.3568 33.0581 27.0096 32.4742 26.7845 31.84C26.5223 31.096 26.3947 30.3113 26.4077 29.5226C26.4009 28.7883 26.5143 28.0578 26.7432 27.36C26.9507 26.7241 27.2862 26.1374 27.729 25.6361C28.176 25.1416 28.7268 24.7521 29.3419 24.4955C30.0424 24.2086 30.7942 24.0681 31.551 24.0826C32.263 24.0676 32.9707 24.1976 33.631 24.4645C34.2316 24.7234 34.7766 25.0958 35.2361 25.5613L34.56 26.4877Z" fill="white"/>
</svg>
