<?xml version="1.0" standalone="no"?>
<!DOCTYPE svg PUBLIC "-//W3C//DTD SVG 20010904//EN"
 "http://www.w3.org/TR/2001/REC-SVG-20010904/DTD/svg10.dtd">
<svg version="1.0" xmlns="http://www.w3.org/2000/svg"
 width="700.000000pt" height="700.000000pt" viewBox="0 0 700.000000 700.000000"
 preserveAspectRatio="xMidYMid meet">
<metadata>
Created by potrace 1.14, written by Peter Selinger 2001-2017
</metadata>
<g transform="translate(0.000000,700.000000) scale(0.100000,-0.100000)"
fill="#000000" stroke="none">
<path d="M1865 6989 c-870 -91 -1587 -709 -1800 -1550 -61 -241 -58 -141 -62
-1854 -3 -1106 -1 -1606 7 -1693 25 -271 88 -500 205 -737 283 -575 821 -987
1454 -1114 203 -41 280 -43 1916 -38 1713 4 1613 1 1854 62 848 215 1462 934
1551 1814 14 141 14 3101 0 3242 -89 881 -703 1599 -1552 1815 -241 61 -135
57 -1888 60 -883 1 -1641 -2 -1685 -7z m1465 -3493 c552 -106 917 -454 1031
-986 33 -151 33 -448 1 -597 -109 -504 -444 -851 -936 -968 -159 -38 -285 -45
-838 -45 l-518 0 0 1311 0 1311 588 -5 c485 -4 602 -8 672 -21z m2401 -731
c86 -18 180 -54 249 -95 68 -40 180 -128 180 -142 0 -15 -120 -177 -148 -198
-39 -31 -78 -25 -172 29 -131 76 -243 100 -365 81 -192 -30 -319 -155 -372
-366 -24 -97 -24 -380 0 -478 40 -161 128 -281 245 -338 65 -32 71 -33 197
-33 120 0 134 2 186 26 31 15 89 50 129 78 60 42 81 51 114 51 23 0 48 -6 56
-13 12 -10 82 -95 143 -175 22 -29 -141 -164 -274 -226 -139 -66 -220 -81
-429 -81 -174 1 -190 2 -265 28 -221 75 -384 222 -484 439 -164 355 -123 830
95 1115 137 178 337 285 587 313 89 10 240 3 328 -15z"/>
<path d="M2560 2211 l0 -921 294 0 c317 0 408 9 530 54 100 36 173 83 257 166
167 165 249 394 249 694 0 477 -205 792 -585 897 -73 20 -107 23 -412 27
l-333 4 0 -921z"/>
</g>
</svg>
